<svg xmlns="http://www.w3.org/2000/svg" viewBox="0 0 48 48" role="img" aria-label="Google Pay">
  <rect width="48" height="48" rx="10" fill="#fff"/>
  <path fill="#EA4335" d="M24 9c-3.31 0-6.28 1.43-8.34 3.7l3.1 2.4C20.08 13.56 21.95 13 24 13c2.66 0 4.93 1.7 5.74 4.08l3.83-2.96C31.4 10.64 27.97 9 24 9z"/>
  <path fill="#34A853" d="M38.74 20.08C38.9 19.42 39 18.72 39 18c0-.72-.1-1.42-.26-2.08H24v4.16h8.26c-.36 1.92-1.46 3.55-3.1 4.64l3.1 2.4c1.84-1.7 2.9-4.2 2.9-7.12z"/>
  <path fill="#4A90E2" d="M12.76 25.92l-3.1-2.4c-.84 1.68-1.32 3.58-1.32 5.58s.48 3.9 1.32 5.58l3.1-2.4c-.44-1.34-.68-2.78-.68-4.18s.24-2.84.68-4.18z"/>
  <path fill="#FBBC05" d="M24 35c2.97 0 5.46-.98 7.28-2.66l-3.1-2.4c-.86.58-1.96.92-3.18.92-2.66 0-4.93-1.7-5.74-4.08l-3.83 2.96C16.6 33.36 20.03 35 24 35z"/>
  <path fill="#4285F4" d="M12.76 25.92c-.44-1.34-.68-2.78-.68-4.18s.24-2.84.68-4.18V9H9.5C7.84 12.18 7 15.5 7 19s.84 6.82 2.5 10l3.26-2.08z"/>
</svg>
