<svg xmlns="http://www.w3.org/2000/svg" viewBox="0 0 48 48" role="img" aria-label="Paytm">
  <rect width="48" height="48" rx="10" fill="#00BAF2"/>
  <path fill="#fff" d="M12.5 15.5h4.6c3.2 0 5.2 1.7 5.2 4.3 0 2.2-1.4 3.7-3.6 4l3.4 6.5h-3.6l-3-5.8h-2.4V30h-3V15.5zm3.6 6.8h1.5c1.4 0 2.2-.7 2.2-1.9s-.8-1.9-2.2-1.9h-1.5v3.8z"/>
  <path fill="#fff" d="M27.2 15.5h3.1v14.5h-3.1V15.5zm1.5-2.2c1 0 1.8.8 1.8 1.8s-.8 1.8-1.8 1.8-1.8-.8-1.8-1.8.8-1.8 1.8-1.8z"/>
  <path fill="#fff" d="M33.5 15.5h3.1l2.2 10.1L41 15.5h2.9l-3.8 14.5h-3.2l-2.1-9.4-2.1 9.4h-3.2L33.5 15.5z"/>
</svg>
